STARTFONT 2.1
FONT -ucw.cz-Haxor-Narrow-R-Normal--15-120-72-72-M-72-iso8859-2
SIZE 15 72 72
FONTBOUNDINGBOX 8 17 0 -3
STARTPROPERTIES 10
FONT_ASCENT 13
FONT_DESCENT 3
CHARSET_ENCODING "2"
CHARSET_REGISTRY "iso8859"
FAMILY_NAME "Haxor"
FOUNDRY "ucw.cz"
SETWIDTH_NAME "Normal"
SLANT "R"
WEIGHT_NAME "Narrow"
_GBDFED_INFO "Edited with gbdfed 1.6."
ENDPROPERTIES
CHARS 199
STARTCHAR char0
ENCODING 0
SWIDTH 533 0
DWIDTH 8 0
BBX 7 13 0 0
BITMAP
FE
FE
FE
FE
FE
FE
FE
FE
FE
FE
FE
FE
FE
ENDCHAR
STARTCHAR char1
ENCODING 1
SWIDTH 533 0
DWIDTH 8 0
BBX 7 7 0 3
BITMAP
10
38
7C
FE
7C
38
10
ENDCHAR
STARTCHAR char2
ENCODING 2
SWIDTH 533 0
DWIDTH 8 0
BBX 7 13 0 0
BITMAP
54
AA
54
AA
54
AA
54
AA
54
AA
54
AA
54
ENDCHAR
STARTCHAR char11
ENCODING 11
SWIDTH 533 0
DWIDTH 8 0
BBX 4 9 0 5
BITMAP
10
10
10
10
10
10
10
20
C0
ENDCHAR
STARTCHAR char12
ENCODING 12
SWIDTH 533 0
DWIDTH 8 0
BBX 4 9 0 -3
BITMAP
C0
20
10
10
10
10
10
10
10
ENDCHAR
STARTCHAR char13
ENCODING 13
SWIDTH 533 0
DWIDTH 8 0
BBX 5 9 3 -3
BITMAP
38
40
80
80
80
80
80
80
80
ENDCHAR
STARTCHAR char14
ENCODING 14
SWIDTH 533 0
DWIDTH 8 0
BBX 5 9 3 5
BITMAP
80
80
80
80
80
80
80
40
38
ENDCHAR
STARTCHAR char15
ENCODING 15
SWIDTH 533 0
DWIDTH 8 0
BBX 7 15 0 -1
BITMAP
10
10
10
10
10
10
10
10
FE
10
10
10
10
10
10
ENDCHAR
STARTCHAR char16
ENCODING 16
SWIDTH 533 0
DWIDTH 8 0
BBX 8 1 0 11
BITMAP
FF
ENDCHAR
STARTCHAR char17
ENCODING 17
SWIDTH 533 0
DWIDTH 8 0
BBX 8 1 0 7
BITMAP
FF
ENDCHAR
STARTCHAR char18
ENCODING 18
SWIDTH 533 0
DWIDTH 8 0
BBX 8 1 0 5
BITMAP
FF
ENDCHAR
STARTCHAR char19
ENCODING 19
SWIDTH 533 0
DWIDTH 8 0
BBX 8 1 0 2
BITMAP
FF
ENDCHAR
STARTCHAR char20
ENCODING 20
SWIDTH 533 0
DWIDTH 8 0
BBX 8 1 0 0
BITMAP
FF
ENDCHAR
STARTCHAR char21
ENCODING 21
SWIDTH 533 0
DWIDTH 8 0
BBX 5 17 3 -3
BITMAP
80
80
80
80
80
80
80
80
78
80
80
80
80
80
80
80
80
ENDCHAR
STARTCHAR char22
ENCODING 22
SWIDTH 533 0
DWIDTH 8 0
BBX 4 17 0 -3
BITMAP
10
10
10
10
10
10
10
10
E0
10
10
10
10
10
10
10
10
ENDCHAR
STARTCHAR char23
ENCODING 23
SWIDTH 533 0
DWIDTH 8 0
BBX 8 9 0 5
BITMAP
10
10
10
10
10
10
10
10
EF
ENDCHAR
STARTCHAR char24
ENCODING 24
SWIDTH 533 0
DWIDTH 8 0
BBX 8 9 0 -3
BITMAP
EF
10
10
10
10
10
10
10
10
ENDCHAR
STARTCHAR char25
ENCODING 25
SWIDTH 533 0
DWIDTH 8 0
BBX 1 17 3 -3
BITMAP
80
80
80
80
80
80
80
80
80
80
80
80
80
80
80
80
80
ENDCHAR
STARTCHAR space
ENCODING 32
SWIDTH 533 0
DWIDTH 8 0
BBX 0 0 0 0
BITMAP
ENDCHAR
STARTCHAR exclam
ENCODING 33
SWIDTH 533 0
DWIDTH 8 0
BBX 1 11 3 0
BITMAP
80
80
80
80
80
80
80
00
00
80
80
ENDCHAR
STARTCHAR char34
ENCODING 34
SWIDTH 533 0
DWIDTH 8 0
BBX 5 4 1 8
BITMAP
D8
48
48
90
ENDCHAR
STARTCHAR hash
ENCODING 35
SWIDTH 533 0
DWIDTH 8 0
BBX 7 10 0 0
BITMAP
14
14
14
7E
28
28
FC
50
50
50
ENDCHAR
STARTCHAR dolar
ENCODING 36
SWIDTH 533 0
DWIDTH 8 0
BBX 7 11 0 0
BITMAP
10
7C
92
90
90
7C
12
12
92
7C
10
ENDCHAR
STARTCHAR char37
ENCODING 37
SWIDTH 533 0
DWIDTH 8 0
BBX 7 11 0 0
BITMAP
62
92
94
68
08
10
20
2C
52
92
8C
ENDCHAR
STARTCHAR amp
ENCODING 38
SWIDTH 533 0
DWIDTH 8 0
BBX 7 11 0 0
BITMAP
30
48
48
48
30
52
8A
8A
86
84
7A
ENDCHAR
STARTCHAR char39
ENCODING 39
SWIDTH 533 0
DWIDTH 8 0
BBX 2 4 2 8
BITMAP
C0
40
40
80
ENDCHAR
STARTCHAR char40
ENCODING 40
SWIDTH 533 0
DWIDTH 8 0
BBX 4 13 1 -1
BITMAP
10
20
40
40
80
80
80
80
80
40
40
20
10
ENDCHAR
STARTCHAR char41
ENCODING 41
SWIDTH 533 0
DWIDTH 8 0
BBX 4 13 1 -1
BITMAP
80
40
20
20
10
10
10
10
10
20
20
40
80
ENDCHAR
STARTCHAR asterisk
ENCODING 42
SWIDTH 533 0
DWIDTH 8 0
BBX 5 6 1 3
BITMAP
20
A8
70
70
A8
20
ENDCHAR
STARTCHAR plus
ENCODING 43
SWIDTH 533 0
DWIDTH 8 0
BBX 7 7 0 2
BITMAP
10
10
10
FE
10
10
10
ENDCHAR
STARTCHAR char44
ENCODING 44
SWIDTH 533 0
DWIDTH 8 0
BBX 2 4 2 -1
BITMAP
C0
40
40
80
ENDCHAR
STARTCHAR char45
ENCODING 45
SWIDTH 533 0
DWIDTH 8 0
BBX 5 1 1 5
BITMAP
F8
ENDCHAR
STARTCHAR char46
ENCODING 46
SWIDTH 533 0
DWIDTH 8 0
BBX 2 2 2 0
BITMAP
C0
C0
ENDCHAR
STARTCHAR char47
ENCODING 47
SWIDTH 533 0
DWIDTH 8 0
BBX 6 11 0 0
BITMAP
04
04
08
08
10
10
20
20
40
40
80
ENDCHAR
STARTCHAR char48
ENCODING 48
SWIDTH 533 0
DWIDTH 8 0
BBX 6 11 0 0
BITMAP
30
48
84
84
94
B4
A4
84
84
48
30
ENDCHAR
STARTCHAR char49
ENCODING 49
SWIDTH 533 0
DWIDTH 8 0
BBX 4 11 1 0
BITMAP
30
50
90
10
10
10
10
10
10
10
10
ENDCHAR
STARTCHAR char50
ENCODING 50
SWIDTH 533 0
DWIDTH 8 0
BBX 5 11 1 0
BITMAP
70
88
08
08
10
20
40
40
80
80
F8
ENDCHAR
STARTCHAR char51
ENCODING 51
SWIDTH 533 0
DWIDTH 8 0
BBX 5 11 1 0
BITMAP
70
88
08
08
08
30
08
08
08
88
70
ENDCHAR
STARTCHAR char52
ENCODING 52
SWIDTH 533 0
DWIDTH 8 0
BBX 6 11 1 0
BITMAP
08
18
18
28
48
48
88
FC
08
08
08
ENDCHAR
STARTCHAR char53
ENCODING 53
SWIDTH 533 0
DWIDTH 8 0
BBX 5 11 1 0
BITMAP
F8
80
80
80
F0
08
08
08
08
88
70
ENDCHAR
STARTCHAR char54
ENCODING 54
SWIDTH 533 0
DWIDTH 8 0
BBX 5 11 1 0
BITMAP
70
88
80
80
F0
88
88
88
88
88
70
ENDCHAR
STARTCHAR char55
ENCODING 55
SWIDTH 533 0
DWIDTH 8 0
BBX 5 11 1 0
BITMAP
F8
08
08
10
10
20
20
40
40
40
40
ENDCHAR
STARTCHAR char56
ENCODING 56
SWIDTH 533 0
DWIDTH 8 0
BBX 5 11 1 0
BITMAP
70
88
88
88
88
70
88
88
88
88
70
ENDCHAR
STARTCHAR char57
ENCODING 57
SWIDTH 533 0
DWIDTH 8 0
BBX 5 11 1 0
BITMAP
70
88
88
88
88
78
08
08
08
88
70
ENDCHAR
STARTCHAR char58
ENCODING 58
SWIDTH 533 0
DWIDTH 8 0
BBX 2 8 2 1
BITMAP
C0
C0
00
00
00
00
C0
C0
ENDCHAR
STARTCHAR char59
ENCODING 59
SWIDTH 533 0
DWIDTH 8 0
BBX 2 9 2 0
BITMAP
C0
C0
00
00
00
00
C0
40
80
ENDCHAR
STARTCHAR char60
ENCODING 60
SWIDTH 533 0
DWIDTH 8 0
BBX 5 9 0 1
BITMAP
08
10
20
40
80
40
20
10
08
ENDCHAR
STARTCHAR char61
ENCODING 61
SWIDTH 533 0
DWIDTH 8 0
BBX 6 5 0 3
BITMAP
FC
00
00
00
FC
ENDCHAR
STARTCHAR char62
ENCODING 62
SWIDTH 533 0
DWIDTH 8 0
BBX 5 9 0 1
BITMAP
80
40
20
10
08
10
20
40
80
ENDCHAR
STARTCHAR char63
ENCODING 63
SWIDTH 533 0
DWIDTH 8 0
BBX 6 11 0 0
BITMAP
78
84
04
04
08
10
20
00
00
20
20
ENDCHAR
STARTCHAR char64
ENCODING 64
SWIDTH 533 0
DWIDTH 8 0
BBX 6 11 0 0
BITMAP
78
84
84
9C
A4
A4
A4
9C
80
80
78
ENDCHAR
STARTCHAR A
ENCODING 65
SWIDTH 533 0
DWIDTH 8 0
BBX 5 11 0 0
BITMAP
20
50
50
88
88
88
F8
88
88
88
88
ENDCHAR
STARTCHAR B
ENCODING 66
SWIDTH 533 0
DWIDTH 8 0
BBX 5 11 0 0
BITMAP
F0
88
88
88
88
F0
88
88
88
88
F0
ENDCHAR
STARTCHAR C
ENCODING 67
SWIDTH 533 0
DWIDTH 8 0
BBX 5 11 0 0
BITMAP
70
88
80
80
80
80
80
80
80
88
70
ENDCHAR
STARTCHAR D
ENCODING 68
SWIDTH 533 0
DWIDTH 8 0
BBX 5 11 0 0
BITMAP
E0
90
88
88
88
88
88
88
88
90
E0
ENDCHAR
STARTCHAR E
ENCODING 69
SWIDTH 533 0
DWIDTH 8 0
BBX 5 11 0 0
BITMAP
F8
80
80
80
80
F0
80
80
80
80
F8
ENDCHAR
STARTCHAR F
ENCODING 70
SWIDTH 533 0
DWIDTH 8 0
BBX 5 11 0 0
BITMAP
F8
80
80
80
F0
80
80
80
80
80
80
ENDCHAR
STARTCHAR G
ENCODING 71
SWIDTH 533 0
DWIDTH 8 0
BBX 5 11 0 0
BITMAP
70
88
80
80
80
98
88
88
88
88
70
ENDCHAR
STARTCHAR char72
ENCODING 72
SWIDTH 533 0
DWIDTH 8 0
BBX 5 11 0 0
BITMAP
88
88
88
88
88
F8
88
88
88
88
88
ENDCHAR
STARTCHAR I
ENCODING 73
SWIDTH 533 0
DWIDTH 8 0
BBX 3 11 1 0
BITMAP
E0
40
40
40
40
40
40
40
40
40
E0
ENDCHAR
STARTCHAR J
ENCODING 74
SWIDTH 533 0
DWIDTH 8 0
BBX 5 11 0 0
BITMAP
F8
08
08
08
08
08
08
08
88
88
70
ENDCHAR
STARTCHAR K
ENCODING 75
SWIDTH 533 0
DWIDTH 8 0
BBX 5 11 0 0
BITMAP
88
88
90
90
A0
C0
A0
90
90
88
88
ENDCHAR
STARTCHAR L
ENCODING 76
SWIDTH 533 0
DWIDTH 8 0
BBX 5 11 0 0
BITMAP
80
80
80
80
80
80
80
80
80
80
F8
ENDCHAR
STARTCHAR M
ENCODING 77
SWIDTH 533 0
DWIDTH 8 0
BBX 5 11 0 0
BITMAP
88
D8
D8
A8
A8
88
88
88
88
88
88
ENDCHAR
STARTCHAR N
ENCODING 78
SWIDTH 533 0
DWIDTH 8 0
BBX 5 11 0 0
BITMAP
88
C8
C8
A8
A8
98
98
88
88
88
88
ENDCHAR
STARTCHAR O
ENCODING 79
SWIDTH 533 0
DWIDTH 8 0
BBX 5 11 0 0
BITMAP
70
88
88
88
88
88
88
88
88
88
70
ENDCHAR
STARTCHAR P
ENCODING 80
SWIDTH 533 0
DWIDTH 8 0
BBX 5 11 0 0
BITMAP
F0
88
88
88
88
F0
80
80
80
80
80
ENDCHAR
STARTCHAR Q
ENCODING 81
SWIDTH 533 0
DWIDTH 8 0
BBX 5 11 0 0
BITMAP
70
88
88
88
88
88
88
88
A8
90
68
ENDCHAR
STARTCHAR R
ENCODING 82
SWIDTH 533 0
DWIDTH 8 0
BBX 5 11 0 0
BITMAP
F0
88
88
88
88
F0
90
90
88
88
88
ENDCHAR
STARTCHAR S
ENCODING 83
SWIDTH 533 0
DWIDTH 8 0
BBX 5 11 0 0
BITMAP
70
88
80
80
40
20
10
08
08
88
70
ENDCHAR
STARTCHAR T
ENCODING 84
SWIDTH 533 0
DWIDTH 8 0
BBX 5 11 0 0
BITMAP
F8
20
20
20
20
20
20
20
20
20
20
ENDCHAR
STARTCHAR U
ENCODING 85
SWIDTH 533 0
DWIDTH 8 0
BBX 5 11 0 0
BITMAP
88
88
88
88
88
88
88
88
88
88
70
ENDCHAR
STARTCHAR V
ENCODING 86
SWIDTH 533 0
DWIDTH 8 0
BBX 5 11 0 0
BITMAP
88
88
88
88
88
50
50
50
50
20
20
ENDCHAR
STARTCHAR W
ENCODING 87
SWIDTH 533 0
DWIDTH 8 0
BBX 7 11 0 0
BITMAP
82
82
82
82
82
92
92
AA
AA
44
44
ENDCHAR
STARTCHAR X
ENCODING 88
SWIDTH 533 0
DWIDTH 8 0
BBX 5 11 0 0
BITMAP
88
88
50
50
20
20
50
50
88
88
88
ENDCHAR
STARTCHAR Y
ENCODING 89
SWIDTH 533 0
DWIDTH 8 0
BBX 5 11 0 0
BITMAP
88
88
88
50
50
20
20
20
20
20
20
ENDCHAR
STARTCHAR Z
ENCODING 90
SWIDTH 533 0
DWIDTH 8 0
BBX 5 11 0 0
BITMAP
F8
08
10
10
20
20
20
40
40
80
F8
ENDCHAR
STARTCHAR bracketleft
ENCODING 91
SWIDTH 533 0
DWIDTH 8 0
BBX 3 12 1 0
BITMAP
E0
80
80
80
80
80
80
80
80
80
80
E0
ENDCHAR
STARTCHAR backslash
ENCODING 92
SWIDTH 533 0
DWIDTH 8 0
BBX 6 11 0 0
BITMAP
80
80
40
40
20
20
10
10
08
08
04
ENDCHAR
STARTCHAR char93
ENCODING 93
SWIDTH 533 0
DWIDTH 8 0
BBX 3 12 1 0
BITMAP
E0
20
20
20
20
20
20
20
20
20
20
E0
ENDCHAR
STARTCHAR char
ENCODING 94
SWIDTH 533 0
DWIDTH 8 0
BBX 5 4 1 7
BITMAP
20
50
50
88
ENDCHAR
STARTCHAR underscore
ENCODING 95
SWIDTH 533 0
DWIDTH 8 0
BBX 6 1 0 0
BITMAP
FC
ENDCHAR
STARTCHAR char96
ENCODING 96
SWIDTH 533 0
DWIDTH 8 0
BBX 3 3 1 10
BITMAP
80
40
20
ENDCHAR
STARTCHAR a
ENCODING 97
SWIDTH 533 0
DWIDTH 8 0
BBX 5 8 0 0
BITMAP
70
88
08
78
88
88
98
68
ENDCHAR
STARTCHAR b
ENCODING 98
SWIDTH 533 0
DWIDTH 8 0
BBX 5 11 0 0
BITMAP
80
80
80
B0
C8
88
88
88
88
C8
B0
ENDCHAR
STARTCHAR c
ENCODING 99
SWIDTH 533 0
DWIDTH 8 0
BBX 5 8 0 0
BITMAP
70
88
80
80
80
80
88
70
ENDCHAR
STARTCHAR d
ENCODING 100
SWIDTH 533 0
DWIDTH 8 0
BBX 5 11 0 0
BITMAP
08
08
08
68
98
88
88
88
88
98
68
ENDCHAR
STARTCHAR e
ENCODING 101
SWIDTH 533 0
DWIDTH 8 0
BBX 5 8 0 0
BITMAP
70
88
88
F8
80
80
88
70
ENDCHAR
STARTCHAR f
ENCODING 102
SWIDTH 533 0
DWIDTH 8 0
BBX 5 11 0 0
BITMAP
38
40
40
F8
40
40
40
40
40
40
40
ENDCHAR
STARTCHAR g
ENCODING 103
SWIDTH 533 0
DWIDTH 8 0
BBX 6 10 0 -2
BITMAP
7C
88
88
88
70
80
78
84
84
78
ENDCHAR
STARTCHAR h
ENCODING 104
SWIDTH 533 0
DWIDTH 8 0
BBX 5 11 0 0
BITMAP
80
80
80
B0
C8
88
88
88
88
88
88
ENDCHAR
STARTCHAR char105
ENCODING 105
SWIDTH 533 0
DWIDTH 8 0
BBX 5 11 0 0
BITMAP
20
00
00
60
20
20
20
20
20
20
F8
ENDCHAR
STARTCHAR j
ENCODING 106
SWIDTH 533 0
DWIDTH 8 0
BBX 5 13 0 -2
BITMAP
08
00
00
18
08
08
08
08
08
08
08
88
70
ENDCHAR
STARTCHAR k
ENCODING 107
SWIDTH 533 0
DWIDTH 8 0
BBX 5 11 0 0
BITMAP
80
80
80
88
90
90
A0
E0
90
88
88
ENDCHAR
STARTCHAR l
ENCODING 108
SWIDTH 533 0
DWIDTH 8 0
BBX 5 11 0 0
BITMAP
60
20
20
20
20
20
20
20
20
20
F8
ENDCHAR
STARTCHAR m
ENCODING 109
SWIDTH 533 0
DWIDTH 8 0
BBX 5 8 0 0
BITMAP
F0
A8
A8
A8
A8
A8
A8
A8
ENDCHAR
STARTCHAR n
ENCODING 110
SWIDTH 533 0
DWIDTH 8 0
BBX 5 8 0 0
BITMAP
B0
C8
88
88
88
88
88
88
ENDCHAR
STARTCHAR o
ENCODING 111
SWIDTH 533 0
DWIDTH 8 0
BBX 5 8 0 0
BITMAP
70
88
88
88
88
88
88
70
ENDCHAR
STARTCHAR p
ENCODING 112
SWIDTH 533 0
DWIDTH 8 0
BBX 5 10 0 -2
BITMAP
B0
C8
88
88
88
88
C8
B0
80
80
ENDCHAR
STARTCHAR q
ENCODING 113
SWIDTH 533 0
DWIDTH 8 0
BBX 5 10 0 -2
BITMAP
68
98
88
88
88
88
98
68
08
08
ENDCHAR
STARTCHAR r
ENCODING 114
SWIDTH 533 0
DWIDTH 8 0
BBX 5 8 1 0
BITMAP
B0
C8
80
80
80
80
80
80
ENDCHAR
STARTCHAR s
ENCODING 115
SWIDTH 533 0
DWIDTH 8 0
BBX 5 8 0 0
BITMAP
70
88
80
60
10
08
88
70
ENDCHAR
STARTCHAR t
ENCODING 116
SWIDTH 533 0
DWIDTH 8 0
BBX 5 11 0 0
BITMAP
40
40
40
F8
40
40
40
40
40
40
38
ENDCHAR
STARTCHAR u
ENCODING 117
SWIDTH 533 0
DWIDTH 8 0
BBX 5 8 0 0
BITMAP
88
88
88
88
88
88
98
68
ENDCHAR
STARTCHAR v
ENCODING 118
SWIDTH 533 0
DWIDTH 8 0
BBX 5 8 0 0
BITMAP
88
88
88
50
50
50
20
20
ENDCHAR
STARTCHAR w
ENCODING 119
SWIDTH 533 0
DWIDTH 8 0
BBX 5 8 0 0
BITMAP
88
88
88
A8
A8
A8
50
50
ENDCHAR
STARTCHAR x
ENCODING 120
SWIDTH 533 0
DWIDTH 8 0
BBX 5 8 0 0
BITMAP
88
88
50
20
20
50
88
88
ENDCHAR
STARTCHAR y
ENCODING 121
SWIDTH 533 0
DWIDTH 8 0
BBX 5 11 0 -3
BITMAP
88
88
88
88
50
50
20
40
40
80
80
ENDCHAR
STARTCHAR z
ENCODING 122
SWIDTH 533 0
DWIDTH 8 0
BBX 5 8 0 0
BITMAP
F8
08
10
20
20
40
80
F8
ENDCHAR
STARTCHAR braceleft
ENCODING 123
SWIDTH 533 0
DWIDTH 8 0
BBX 3 13 2 -1
BITMAP
60
80
80
80
40
40
80
40
40
80
80
80
60
ENDCHAR
STARTCHAR bar
ENCODING 124
SWIDTH 533 0
DWIDTH 8 0
BBX 1 11 3 0
BITMAP
80
80
80
80
80
80
80
80
80
80
80
ENDCHAR
STARTCHAR braceright
ENCODING 125
SWIDTH 533 0
DWIDTH 8 0
BBX 3 13 3 -1
BITMAP
C0
20
20
20
40
40
20
40
40
20
20
20
C0
ENDCHAR
STARTCHAR tilda
ENCODING 126
SWIDTH 533 0
DWIDTH 8 0
BBX 7 3 0 4
BITMAP
60
92
0C
ENDCHAR
STARTCHAR Aogonek
ENCODING 161
SWIDTH 533 0
DWIDTH 8 0
BBX 6 14 0 -3
BITMAP
20
50
50
88
88
88
F8
88
88
88
88
10
10
0C
ENDCHAR
STARTCHAR Lslash
ENCODING 163
SWIDTH 533 0
DWIDTH 8 0
BBX 6 12 0 0
BITMAP
40
40
40
40
50
60
40
C0
40
40
40
7C
ENDCHAR
STARTCHAR currency
ENCODING 164
SWIDTH 533 0
DWIDTH 8 0
BBX 7 7 0 3
BITMAP
BA
44
82
82
82
44
BA
ENDCHAR
STARTCHAR Lcaron
ENCODING 165
SWIDTH 533 0
DWIDTH 8 0
BBX 5 13 0 0
BITMAP
30
90
A0
80
80
80
80
80
80
80
80
80
F8
ENDCHAR
STARTCHAR Sacute
ENCODING 166
SWIDTH 533 0
DWIDTH 8 0
BBX 5 14 0 0
BITMAP
10
20
00
70
88
80
80
40
20
10
08
08
88
70
ENDCHAR
STARTCHAR section
ENCODING 167
SWIDTH 533 0
DWIDTH 8 0
BBX 5 12 1 0
BITMAP
70
88
88
40
A0
90
48
28
10
88
88
70
ENDCHAR
STARTCHAR Scaron
ENCODING 169
SWIDTH 533 0
DWIDTH 8 0
BBX 5 14 0 0
BITMAP
50
20
00
70
88
80
80
40
20
10
08
08
88
70
ENDCHAR
STARTCHAR Scedilla
ENCODING 170
SWIDTH 533 0
DWIDTH 8 0
BBX 5 14 0 -3
BITMAP
70
88
80
80
40
20
10
08
08
88
70
20
10
60
ENDCHAR
STARTCHAR Tcaron
ENCODING 171
SWIDTH 533 0
DWIDTH 8 0
BBX 5 14 0 0
BITMAP
50
20
00
F8
20
20
20
20
20
20
20
20
20
20
ENDCHAR
STARTCHAR Zacute
ENCODING 172
SWIDTH 533 0
DWIDTH 8 0
BBX 5 11 0 0
BITMAP
10
20
00
F8
08
10
20
20
40
80
F8
ENDCHAR
STARTCHAR Zcaron
ENCODING 174
SWIDTH 533 0
DWIDTH 8 0
BBX 5 11 0 0
BITMAP
50
20
00
F8
08
10
20
20
40
80
F8
ENDCHAR
STARTCHAR Zdotaccent
ENCODING 175
SWIDTH 533 0
DWIDTH 8 0
BBX 5 10 0 0
BITMAP
20
00
F8
08
10
20
20
40
80
F8
ENDCHAR
STARTCHAR degree
ENCODING 176
SWIDTH 533 0
DWIDTH 8 0
BBX 4 4 1 8
BITMAP
60
90
90
60
ENDCHAR
STARTCHAR aogonek
ENCODING 177
SWIDTH 533 0
DWIDTH 8 0
BBX 5 11 0 -3
BITMAP
70
88
08
78
88
88
98
68
20
40
30
ENDCHAR
STARTCHAR lslash
ENCODING 179
SWIDTH 533 0
DWIDTH 8 0
BBX 5 11 0 0
BITMAP
60
20
28
30
20
60
A0
20
20
20
F8
ENDCHAR
STARTCHAR acute
ENCODING 180
SWIDTH 533 0
DWIDTH 8 0
BBX 2 2 3 10
BITMAP
40
80
ENDCHAR
STARTCHAR lcaron
ENCODING 181
SWIDTH 533 0
DWIDTH 8 0
BBX 5 13 0 0
BITMAP
18
08
70
20
20
20
20
20
20
20
20
20
F8
ENDCHAR
STARTCHAR sacute
ENCODING 182
SWIDTH 533 0
DWIDTH 8 0
BBX 5 11 0 0
BITMAP
20
50
00
70
88
80
60
10
08
88
70
ENDCHAR
STARTCHAR caron
ENCODING 183
SWIDTH 533 0
DWIDTH 8 0
BBX 3 2 2 10
BITMAP
A0
40
ENDCHAR
STARTCHAR scaron
ENCODING 185
SWIDTH 533 0
DWIDTH 8 0
BBX 5 11 0 0
BITMAP
50
20
00
70
88
80
60
10
08
88
70
ENDCHAR
STARTCHAR scedilla
ENCODING 186
SWIDTH 533 0
DWIDTH 8 0
BBX 5 11 0 -3
BITMAP
70
88
80
60
10
08
88
70
20
10
60
ENDCHAR
STARTCHAR tcaron
ENCODING 187
SWIDTH 533 0
DWIDTH 8 0
BBX 6 12 0 0
BITMAP
0C
44
48
40
F8
40
40
40
40
40
40
38
ENDCHAR
STARTCHAR zacute
ENCODING 188
SWIDTH 533 0
DWIDTH 8 0
BBX 5 11 0 0
BITMAP
10
20
00
F8
08
10
20
20
40
80
F8
ENDCHAR
STARTCHAR zcaron
ENCODING 190
SWIDTH 533 0
DWIDTH 8 0
BBX 5 11 0 0
BITMAP
50
20
00
F8
08
10
20
20
40
80
F8
ENDCHAR
STARTCHAR zdotaccent
ENCODING 191
SWIDTH 533 0
DWIDTH 8 0
BBX 5 10 0 0
BITMAP
20
00
F8
08
10
20
20
40
80
F8
ENDCHAR
STARTCHAR Racute
ENCODING 192
SWIDTH 533 0
DWIDTH 8 0
BBX 5 14 0 0
BITMAP
10
20
00
F0
88
88
88
88
F0
90
90
88
88
88
ENDCHAR
STARTCHAR Aacute
ENCODING 193
SWIDTH 533 0
DWIDTH 8 0
BBX 5 14 0 0
BITMAP
10
20
00
20
50
50
88
88
88
F8
88
88
88
88
ENDCHAR
STARTCHAR Acircumflex
ENCODING 194
SWIDTH 533 0
DWIDTH 8 0
BBX 5 14 0 0
BITMAP
20
50
00
20
50
50
88
88
88
F8
88
88
88
88
ENDCHAR
STARTCHAR Abreve
ENCODING 195
SWIDTH 533 0
DWIDTH 8 0
BBX 5 14 0 0
BITMAP
50
20
00
20
50
50
88
88
88
F8
88
88
88
88
ENDCHAR
STARTCHAR Adieresis
ENCODING 196
SWIDTH 533 0
DWIDTH 8 0
BBX 5 13 0 0
BITMAP
50
00
20
50
50
88
88
88
F8
88
88
88
88
ENDCHAR
STARTCHAR Lacute
ENCODING 197
SWIDTH 533 0
DWIDTH 8 0
BBX 5 14 0 0
BITMAP
40
80
00
80
80
80
80
80
80
80
80
80
80
F8
ENDCHAR
STARTCHAR Cacute
ENCODING 198
SWIDTH 533 0
DWIDTH 8 0
BBX 5 14 0 0
BITMAP
10
20
00
70
88
80
80
80
80
80
80
80
88
70
ENDCHAR
STARTCHAR Ccedilla
ENCODING 199
SWIDTH 533 0
DWIDTH 8 0
BBX 5 14 0 -3
BITMAP
70
88
80
80
80
80
80
80
80
88
70
20
10
60
ENDCHAR
STARTCHAR Ccaron
ENCODING 200
SWIDTH 533 0
DWIDTH 8 0
BBX 5 14 0 0
BITMAP
50
20
00
70
88
80
80
80
80
80
80
80
88
70
ENDCHAR
STARTCHAR Eacute
ENCODING 201
SWIDTH 533 0
DWIDTH 8 0
BBX 5 14 0 0
BITMAP
10
20
00
F8
80
80
80
80
F0
80
80
80
80
F8
ENDCHAR
STARTCHAR Eogonek
ENCODING 202
SWIDTH 533 0
DWIDTH 8 0
BBX 5 14 0 -3
BITMAP
F8
80
80
80
80
F0
80
80
80
80
F8
20
40
30
ENDCHAR
STARTCHAR Edieresis
ENCODING 203
SWIDTH 533 0
DWIDTH 8 0
BBX 5 13 0 0
BITMAP
50
00
F8
80
80
80
80
F0
80
80
80
80
F8
ENDCHAR
STARTCHAR Ecaron
ENCODING 204
SWIDTH 533 0
DWIDTH 8 0
BBX 5 14 0 0
BITMAP
50
20
00
F8
80
80
80
80
F0
80
80
80
80
F8
ENDCHAR
STARTCHAR Iacute
ENCODING 205
SWIDTH 533 0
DWIDTH 8 0
BBX 3 14 1 0
BITMAP
20
40
00
E0
40
40
40
40
40
40
40
40
40
E0
ENDCHAR
STARTCHAR Icircumflex
ENCODING 206
SWIDTH 533 0
DWIDTH 8 0
BBX 3 14 1 0
BITMAP
40
A0
00
E0
40
40
40
40
40
40
40
40
40
E0
ENDCHAR
STARTCHAR Dcaron
ENCODING 207
SWIDTH 533 0
DWIDTH 8 0
BBX 5 14 0 0
BITMAP
50
20
00
E0
90
88
88
88
88
88
88
88
90
E0
ENDCHAR
STARTCHAR Dcroat
ENCODING 208
SWIDTH 533 0
DWIDTH 8 0
BBX 5 11 0 0
BITMAP
E0
90
88
88
88
E8
88
88
88
90
E0
ENDCHAR
STARTCHAR Nacute
ENCODING 209
SWIDTH 533 0
DWIDTH 8 0
BBX 5 14 0 0
BITMAP
10
20
00
88
C8
C8
A8
A8
98
98
88
88
88
88
ENDCHAR
STARTCHAR Ncaron
ENCODING 210
SWIDTH 533 0
DWIDTH 8 0
BBX 5 14 0 0
BITMAP
50
20
00
88
C8
C8
A8
A8
98
98
88
88
88
88
ENDCHAR
STARTCHAR Oacute
ENCODING 211
SWIDTH 533 0
DWIDTH 8 0
BBX 5 14 0 0
BITMAP
10
20
00
70
88
88
88
88
88
88
88
88
88
70
ENDCHAR
STARTCHAR Ocircumflex
ENCODING 212
SWIDTH 533 0
DWIDTH 8 0
BBX 5 14 0 0
BITMAP
20
50
00
70
88
88
88
88
88
88
88
88
88
70
ENDCHAR
STARTCHAR Ohungarumlaut
ENCODING 213
SWIDTH 533 0
DWIDTH 8 0
BBX 5 14 0 0
BITMAP
28
50
00
70
88
88
88
88
88
88
88
88
88
70
ENDCHAR
STARTCHAR Odieresis
ENCODING 214
SWIDTH 533 0
DWIDTH 8 0
BBX 5 13 0 0
BITMAP
50
00
70
88
88
88
88
88
88
88
88
88
70
ENDCHAR
STARTCHAR Rcaron
ENCODING 216
SWIDTH 533 0
DWIDTH 8 0
BBX 5 14 0 0
BITMAP
50
20
00
F0
88
88
88
88
F0
90
90
88
88
88
ENDCHAR
STARTCHAR Uring
ENCODING 217
SWIDTH 533 0
DWIDTH 8 0
BBX 5 14 0 0
BITMAP
20
50
20
88
88
88
88
88
88
88
88
88
88
70
ENDCHAR
STARTCHAR Uacute
ENCODING 218
SWIDTH 533 0
DWIDTH 8 0
BBX 5 14 0 0
BITMAP
10
20
00
88
88
88
88
88
88
88
88
88
88
70
ENDCHAR
STARTCHAR Uhungarumlaut
ENCODING 219
SWIDTH 533 0
DWIDTH 8 0
BBX 5 14 0 0
BITMAP
28
50
00
88
88
88
88
88
88
88
88
88
88
70
ENDCHAR
STARTCHAR Udieresis
ENCODING 220
SWIDTH 533 0
DWIDTH 8 0
BBX 5 13 0 0
BITMAP
50
00
88
88
88
88
88
88
88
88
88
88
70
ENDCHAR
STARTCHAR Yacute
ENCODING 221
SWIDTH 533 0
DWIDTH 8 0
BBX 5 14 0 0
BITMAP
10
20
00
88
88
88
50
50
20
20
20
20
20
20
ENDCHAR
STARTCHAR Tcommaaccent
ENCODING 222
SWIDTH 533 0
DWIDTH 8 0
BBX 5 14 0 -3
BITMAP
F8
20
20
20
20
20
20
20
20
20
20
20
20
40
ENDCHAR
STARTCHAR germandbls
ENCODING 223
SWIDTH 533 0
DWIDTH 8 0
BBX 6 11 0 0
BITMAP
70
88
88
88
B0
88
84
84
84
84
B8
ENDCHAR
STARTCHAR racute
ENCODING 224
SWIDTH 533 0
DWIDTH 8 0
BBX 5 11 1 0
BITMAP
10
20
00
B0
C8
80
80
80
80
80
80
ENDCHAR
STARTCHAR aacute
ENCODING 225
SWIDTH 533 0
DWIDTH 8 0
BBX 5 11 0 0
BITMAP
10
20
00
70
88
08
78
88
88
98
68
ENDCHAR
STARTCHAR acircumflex
ENCODING 226
SWIDTH 533 0
DWIDTH 8 0
BBX 5 11 0 0
BITMAP
20
50
00
70
88
08
78
88
88
98
68
ENDCHAR
STARTCHAR abreve
ENCODING 227
SWIDTH 533 0
DWIDTH 8 0
BBX 5 11 0 0
BITMAP
50
20
00
70
88
08
78
88
88
98
68
ENDCHAR
STARTCHAR adieresis
ENCODING 228
SWIDTH 533 0
DWIDTH 8 0
BBX 5 10 0 0
BITMAP
50
00
70
88
08
78
88
88
98
68
ENDCHAR
STARTCHAR lacute
ENCODING 229
SWIDTH 533 0
DWIDTH 8 0
BBX 5 14 0 0
BITMAP
20
40
00
60
20
20
20
20
20
20
20
20
20
F8
ENDCHAR
STARTCHAR cacute
ENCODING 230
SWIDTH 533 0
DWIDTH 8 0
BBX 5 11 0 0
BITMAP
10
20
00
70
88
80
80
80
80
88
70
ENDCHAR
STARTCHAR ccedilla
ENCODING 231
SWIDTH 533 0
DWIDTH 8 0
BBX 5 11 0 -3
BITMAP
70
88
80
80
80
80
88
70
20
20
10
ENDCHAR
STARTCHAR ccaron
ENCODING 232
SWIDTH 533 0
DWIDTH 8 0
BBX 5 11 0 0
BITMAP
50
20
00
70
88
80
80
80
80
88
70
ENDCHAR
STARTCHAR eacute
ENCODING 233
SWIDTH 533 0
DWIDTH 8 0
BBX 5 11 0 0
BITMAP
10
20
00
70
88
88
F8
80
80
88
70
ENDCHAR
STARTCHAR eogonek
ENCODING 234
SWIDTH 533 0
DWIDTH 8 0
BBX 5 11 0 -3
BITMAP
70
88
88
F8
80
80
88
70
20
20
10
ENDCHAR
STARTCHAR edieresis
ENCODING 235
SWIDTH 533 0
DWIDTH 8 0
BBX 5 10 0 0
BITMAP
50
00
70
88
88
F8
80
80
88
70
ENDCHAR
STARTCHAR ecaron
ENCODING 236
SWIDTH 533 0
DWIDTH 8 0
BBX 5 11 0 0
BITMAP
50
20
00
70
88
88
F8
80
80
88
70
ENDCHAR
STARTCHAR iacute
ENCODING 237
SWIDTH 533 0
DWIDTH 8 0
BBX 5 11 0 0
BITMAP
10
20
00
60
20
20
20
20
20
20
F8
ENDCHAR
STARTCHAR icircumflex
ENCODING 238
SWIDTH 533 0
DWIDTH 8 0
BBX 5 11 0 0
BITMAP
20
50
00
60
20
20
20
20
20
20
F8
ENDCHAR
STARTCHAR dcaron
ENCODING 239
SWIDTH 533 0
DWIDTH 8 0
BBX 6 13 0 0
BITMAP
0C
04
08
08
68
98
88
88
88
88
88
98
68
ENDCHAR
STARTCHAR dcroat
ENCODING 240
SWIDTH 533 0
DWIDTH 8 0
BBX 6 11 0 0
BITMAP
08
1C
08
68
98
88
88
88
88
98
68
ENDCHAR
STARTCHAR nacute
ENCODING 241
SWIDTH 533 0
DWIDTH 8 0
BBX 5 11 0 0
BITMAP
10
20
00
B0
C8
88
88
88
88
88
88
ENDCHAR
STARTCHAR ncaron
ENCODING 242
SWIDTH 533 0
DWIDTH 8 0
BBX 5 11 0 0
BITMAP
50
20
00
B0
C8
88
88
88
88
88
88
ENDCHAR
STARTCHAR oacute
ENCODING 243
SWIDTH 533 0
DWIDTH 8 0
BBX 5 11 0 0
BITMAP
10
20
00
70
88
88
88
88
88
88
70
ENDCHAR
STARTCHAR ocircumflex
ENCODING 244
SWIDTH 533 0
DWIDTH 8 0
BBX 5 11 0 0
BITMAP
20
50
00
70
88
88
88
88
88
88
70
ENDCHAR
STARTCHAR ohungarumlaut
ENCODING 245
SWIDTH 533 0
DWIDTH 8 0
BBX 5 11 0 0
BITMAP
28
50
00
70
88
88
88
88
88
88
70
ENDCHAR
STARTCHAR odieresis
ENCODING 246
SWIDTH 533 0
DWIDTH 8 0
BBX 5 10 0 0
BITMAP
50
00
70
88
88
88
88
88
88
70
ENDCHAR
STARTCHAR rcaron
ENCODING 248
SWIDTH 533 0
DWIDTH 8 0
BBX 5 11 1 0
BITMAP
50
20
00
B0
C8
80
80
80
80
80
80
ENDCHAR
STARTCHAR uring
ENCODING 249
SWIDTH 533 0
DWIDTH 8 0
BBX 5 12 0 0
BITMAP
20
50
20
00
88
88
88
88
88
88
98
68
ENDCHAR
STARTCHAR uacute
ENCODING 250
SWIDTH 533 0
DWIDTH 8 0
BBX 5 11 0 0
BITMAP
10
20
00
88
88
88
88
88
88
98
68
ENDCHAR
STARTCHAR uhungarumlaut
ENCODING 251
SWIDTH 533 0
DWIDTH 8 0
BBX 5 11 0 0
BITMAP
28
50
00
88
88
88
88
88
88
98
68
ENDCHAR
STARTCHAR udieresis
ENCODING 252
SWIDTH 533 0
DWIDTH 8 0
BBX 5 10 0 0
BITMAP
50
00
88
88
88
88
88
88
98
68
ENDCHAR
STARTCHAR yacute
ENCODING 253
SWIDTH 533 0
DWIDTH 8 0
BBX 5 14 0 -3
BITMAP
10
20
00
88
88
88
88
50
50
20
40
40
80
80
ENDCHAR
STARTCHAR tcommaaccent
ENCODING 254
SWIDTH 533 0
DWIDTH 8 0
BBX 5 14 0 -3
BITMAP
40
40
40
F8
40
40
40
40
40
40
38
10
10
20
ENDCHAR
ENDFONT
